<?xml version="1.0" encoding="UTF-8"?>
<svg version="1.1" xmlns="http://www.w3.org/2000/svg" width="512" height="512">
<path d="M0 0 C0.01981934 0.70608398 0.03963867 1.41216797 0.06005859 2.13964844 C0.15540415 5.34346994 0.26504513 8.54664801 0.375 11.75 C0.42140625 13.41675781 0.42140625 13.41675781 0.46875 15.1171875 C0.50742188 16.18710938 0.54609375 17.25703125 0.5859375 18.359375 C0.6173584 19.34389648 0.6487793 20.32841797 0.68115234 21.34277344 C1.00481526 24.04012964 1.56347072 25.71217013 3 28 C6.22794238 30.30567313 9.11566819 30.32369432 13 30 C15.56315841 29.14561386 16.64474346 28.56578486 18.08349609 26.27441406 C19.18740991 23.5349199 19.31990512 21.30963953 19.4140625 18.359375 C19.47207031 16.75449219 19.47207031 16.75449219 19.53125 15.1171875 C19.5621875 14.00601563 19.593125 12.89484375 19.625 11.75 C19.68300781 10.06003906 19.68300781 10.06003906 19.7421875 8.3359375 C19.83637336 5.55745452 19.92199586 2.77897666 20 0 C27.14144325 -0.22600727 33.84831892 0.36381635 40.875 1.625 C41.87168701 1.80321289 42.86837402 1.98142578 43.89526367 2.16503906 C60.54179524 5.28700659 75.73652335 10.73694469 91 18 C91 21.48075286 90.13965731 22.76310815 88.4375 25.75 C86.66588008 29.21248223 86.00314706 30.90244109 85.875 34.875 C87.26671672 38.74087978 88.3928068 40.03956891 92 42 C95.5 42.75 95.5 42.75 99 42 C103.50716648 38.5659684 106.18175198 33.83299555 109 29 C119.18763417 34.31528739 127.65741371 42.19203548 136 50 C136.93714844 50.87140625 137.87429688 51.7428125 138.83984375 52.640625 C158.43364014 71.30092042 158.43364014 71.30092042 162 82 C161.22914063 82.47050781 160.45828125 82.94101563 159.6640625 83.42578125 C158.66117187 84.04839844 157.65828125 84.67101562 156.625 85.3125 C155.62726563 85.92738281 154.62953125 86.54226562 153.6015625 87.17578125 C150.80173188 88.90437775 150.80173188 88.90437775 149 92 C148.55329363 96.02035732 148.61750984 98.29621811 150.5625 101.875 C152.93731898 103.94535501 154.61083276 105.05983036 157.78515625 105.3515625 C162.92462381 104.535774 167.52441991 101.53542714 172 99 C183.97282089 120.65297394 191.45815506 146.15781438 191 171 C190.29391602 171.01981934 189.58783203 171.03963867 188.86035156 171.06005859 C185.65653006 171.15540415 182.45335199 171.26504513 179.25 171.375 C177.58324219 171.42140625 177.58324219 171.42140625 175.8828125 171.46875 C174.27792969 171.52675781 174.27792969 171.52675781 172.640625 171.5859375 C171.65610352 171.6173584 170.67158203 171.6487793 169.65722656 171.68115234 C166.95987036 172.00481526 165.28782987 172.56347072 163 174 C160.69432687 177.22794238 160.67630568 180.11566819 161 184 C161.85438614 186.56315841 162.43421514 187.64474346 164.72558594 189.08349609 C167.4650801 190.18740991 169.69036047 190.31990512 172.640625 190.4140625 C174.24550781 190.47207031 174.24550781 190.47207031 175.8828125 190.53125 C177.54957031 190.57765625 177.54957031 190.57765625 179.25 190.625 C180.93996094 190.68300781 180.93996094 190.68300781 182.6640625 190.7421875 C185.44254548 190.83637336 188.22102334 190.92199586 191 191 C191.27731552 198.46492299 190.47671019 205.41625322 189.125 212.75 C188.86396484 214.25240234 188.86396484 214.25240234 188.59765625 215.78515625 C187.72364345 220.67315375 186.7605487 225.33692506 185 230 C180.94727515 229.3463347 177.22959303 228.09645547 173.37890625 226.71875 C168.77361056 225.32733061 164.25138448 224.87498231 159.4566412 224.86857224 C158.37285936 224.86473109 157.28907753 224.86088995 156.17245382 224.8569324 C154.99260445 224.85779888 153.81275509 224.85866537 152.59715271 224.85955811 C151.33529728 224.85658698 150.07344186 224.85361586 148.77334839 224.8505547 C145.27751049 224.84250759 141.78169314 224.84069641 138.28584707 224.83995724 C134.51265692 224.83810266 130.73947734 224.83055323 126.96629333 224.82382202 C118.7181064 224.81025384 110.46992433 224.80421617 102.22172809 224.79981136 C97.06798942 224.79704604 91.91425262 224.79280812 86.76051521 224.78830719 C72.4816204 224.77611586 58.20272708 224.76581669 43.92382717 224.7624321 C42.55360949 224.76210275 42.55360949 224.76210275 41.15571064 224.76176675 C40.24008634 224.76154847 39.32446203 224.76133019 38.38109154 224.7611053 C36.52578954 224.76066184 34.67048754 224.76021527 32.81518555 224.75976562 C31.89489801 224.7595442 30.97461048 224.75932277 30.02643544 224.75909463 C15.12376661 224.75514895 0.22114674 224.73770137 -14.68150318 224.7144061 C-29.99455589 224.69066325 -45.30758407 224.67822889 -60.62065548 224.67706418 C-69.2131857 224.676149 -77.80565214 224.67043644 -86.39816475 224.65224457 C-93.71686545 224.63680386 -101.03548265 224.63174641 -108.35419656 224.63998267 C-112.08442754 224.64387534 -115.81449057 224.64302779 -119.54470062 224.62892532 C-123.59934258 224.61373734 -127.65361018 224.62209384 -131.70826721 224.63250732 C-133.45461868 224.62042272 -133.45461868 224.62042272 -135.23624998 224.60809398 C-143.59389757 224.6580702 -152.5940376 225.27497366 -160.18245417 229.10012698 C-162 230 -162 230 -165 230 C-168.7486757 217.00701724 -171.18347052 204.58531233 -171 191 C-170.29391602 190.98018066 -169.58783203 190.96036133 -168.86035156 190.93994141 C-165.65653006 190.84459585 -162.45335199 190.73495487 -159.25 190.625 C-158.13882813 190.5940625 -157.02765625 190.563125 -155.8828125 190.53125 C-154.81289062 190.49257813 -153.74296875 190.45390625 -152.640625 190.4140625 C-151.65610352 190.3826416 -150.67158203 190.3512207 -149.65722656 190.31884766 C-146.95987036 189.99518474 -145.28782987 189.43652928 -143 188 C-140.69432687 184.77205762 -140.67630568 181.88433181 -141 178 C-141.85438614 175.43684159 -142.43421514 174.35525654 -144.72558594 172.91650391 C-147.4650801 171.81259009 -149.69036047 171.68009488 -152.640625 171.5859375 C-153.71054688 171.54726562 -154.78046875 171.50859375 -155.8828125 171.46875 C-156.99398437 171.4378125 -158.10515625 171.406875 -159.25 171.375 C-160.93996094 171.31699219 -160.93996094 171.31699219 -162.6640625 171.2578125 C-165.44254548 171.16362664 -168.22102334 171.07800414 -171 171 C-171.23792217 163.78694395 -170.59897117 157.03119378 -169.3125 149.9375 C-169.13170898 148.93235352 -168.95091797 147.92720703 -168.76464844 146.89160156 C-166.40159982 134.24707737 -162.78858917 122.50662504 -157.875 110.625 C-157.53823242 109.8093457 -157.20146484 108.99369141 -156.85449219 108.15332031 C-156.52868164 107.39374023 -156.20287109 106.63416016 -155.8671875 105.8515625 C-155.43575439 104.84343506 -155.43575439 104.84343506 -154.99560547 103.81494141 C-153.91085375 101.83749063 -152.66097647 100.51205729 -151 99 C-150.28714844 99.44472656 -149.57429688 99.88945312 -148.83984375 100.34765625 C-142.83487479 103.94129772 -142.83487479 103.94129772 -136.0625 105.1875 C-132.27859158 103.7202702 -130.93854295 102.56691902 -129 99 C-128.25 95.5 -128.25 95.5 -129 92 C-132.4340316 87.49283352 -137.16700445 84.81824802 -142 82 C-136.68471261 71.81236583 -128.80796452 63.34258629 -121 55 C-119.69289063 53.59427734 -119.69289063 53.59427734 -118.359375 52.16015625 C-99.69907958 32.56635986 -99.69907958 32.56635986 -89 29 C-88.52949219 29.77085938 -88.05898437 30.54171875 -87.57421875 31.3359375 C-86.64029297 32.84027344 -86.64029297 32.84027344 -85.6875 34.375 C-84.76517578 35.87160156 -84.76517578 35.87160156 -83.82421875 37.3984375 C-82.09562225 40.19826812 -82.09562225 40.19826812 -79 42 C-74.97964268 42.44670637 -72.70378189 42.38249016 -69.125 40.4375 C-67.05464499 38.06268102 -65.94016964 36.38916724 -65.6484375 33.21484375 C-66.464226 28.07537619 -69.46457286 23.47558009 -72 19 C-54.75877013 9.46661407 -36.36358591 4.21663333 -17 1 C-15.86304688 0.80148438 -14.72609375 0.60296875 -13.5546875 0.3984375 C-9.02200242 -0.10962171 -4.55541209 -0.08249237 0 0 Z M1.38143921 68.56202698 C-0.67273691 72.18725054 -0.39798217 75.76492386 -0.35302734 79.82006836 C-0.35518753 80.70994949 -0.35734772 81.59983063 -0.35957336 82.51667786 C-0.36265919 84.4471586 -0.35905785 86.37765898 -0.34955978 88.30811882 C-0.33582951 91.36387812 -0.34225399 94.41898742 -0.35440063 97.4747467 C-0.38537686 106.16183729 -0.38047366 114.84877714 -0.36035156 123.53588867 C-0.34943919 128.85098566 -0.36261316 134.16559413 -0.39024734 139.48062325 C-0.39569088 141.50560768 -0.39161645 143.5306409 -0.37784958 145.55558586 C-0.35881804 148.38777879 -0.37018997 151.21837204 -0.38818359 154.05053711 C-0.36817543 155.30454819 -0.36817543 155.30454819 -0.34776306 156.58389282 C-0.40866922 160.89490083 -0.5770976 162.48577813 -3.41323853 165.93434143 C-4.69368546 166.95684242 -4.69368546 166.95684242 -6 168 C-6.66 168.66 -7.32 169.32 -8 170 C-10.90229797 170.2515564 -10.90229797 170.2515564 -14.6652832 170.25537109 C-15.3500473 170.25899155 -16.0348114 170.262612 -16.74032593 170.26634216 C-18.22938516 170.27324256 -19.71846972 170.27574039 -21.20754433 170.27439499 C-23.56579867 170.27343136 -25.92359514 170.28635284 -28.28178406 170.30337524 C-34.98721738 170.34969235 -41.69260567 170.37424732 -48.39819336 170.38085938 C-52.49853049 170.38587789 -56.59839227 170.41014786 -60.69856834 170.44618607 C-62.26020642 170.45597957 -63.82190994 170.45831842 -65.38356972 170.45301437 C-67.57173932 170.445933 -69.75849696 170.46324639 -71.9465332 170.48583984 C-73.19070511 170.48868988 -74.43487701 170.49153992 -75.7167511 170.49447632 C-79.58970405 171.09079707 -81.23792993 172.27541439 -84 175 C-85.60086627 178.20173254 -85.49917089 181.52577059 -85 185 C-83.20636089 187.8100346 -81.98119065 189.50940468 -79 191 C-76.7745929 191.09529822 -74.54629414 191.12514761 -72.31884766 191.12597656 C-71.28929207 191.12877876 -71.28929207 191.12877876 -70.23893738 191.13163757 C-68.74659221 191.13564441 -67.25424091 191.13771667 -65.76189041 191.13809967 C-62.59045251 191.14151088 -59.41922043 191.16286707 -56.24785423 191.18333054 C-50.34066448 191.2213807 -44.43369342 191.25261368 -38.52636719 191.25048828 C-34.41944706 191.24970176 -30.31327838 191.27303825 -26.20655441 191.3123703 C-24.64130404 191.32284169 -23.07596705 191.32434588 -21.51070023 191.31671906 C-19.31961883 191.3071081 -17.13081685 191.32825281 -14.93994141 191.35644531 C-13.69354889 191.36009094 -12.44715637 191.36373657 -11.16299438 191.36749268 C-7.10860873 192.17825245 -6.26923721 193.65017925 -4 197 C1.39289317 200.88288308 6.32889787 202.2718631 13 202 C19.62640043 200.5916013 24.29024133 197.37466481 28.25 191.875 C30.88194987 186.85818126 31.70412158 181.31283433 30.5234375 175.7578125 C28.64116866 170.27648015 25.87010579 166.24673719 21 163 C20.71048115 160.07151066 20.61470589 157.35298871 20.64697266 154.42285156 C20.64481247 153.53486877 20.64265228 152.64688599 20.64042664 151.73199463 C20.63733337 149.7992982 20.640964 147.86658223 20.65044022 145.93390656 C20.66413767 142.87383154 20.65776468 139.81440811 20.64559937 136.7543335 C20.61458243 128.05265111 20.61949217 119.35111741 20.63964844 110.64941406 C20.65057091 105.33013466 20.63736125 100.01134277 20.60975266 94.69213104 C20.60431238 92.66518202 20.60837524 90.63818423 20.62215042 88.61127472 C20.6412157 85.77188622 20.62978806 82.93408803 20.61181641 80.09472656 C20.62515518 79.25917236 20.63849396 78.42361816 20.65223694 77.56274414 C20.59461206 73.46154853 20.25382874 70.78223633 17.68051147 67.49798584 C11.91909881 62.12888842 6.66046974 63.46738478 1.38143921 68.56202698 Z " fill="#000000" transform="translate(246,75)"/>
<path d="M0 0 C1.10105786 -0.00644889 2.20211572 -0.01289778 3.33653897 -0.0195421 C5.14293393 -0.01489629 5.14293393 -0.01489629 6.98582172 -0.01015663 C8.26935718 -0.01468774 9.55289264 -0.01921886 10.87532312 -0.02388728 C14.43624185 -0.03612242 17.99706668 -0.03585621 21.55800164 -0.03349853 C25.3993281 -0.03309048 29.24062441 -0.04412845 33.08193684 -0.05361366 C40.60778793 -0.07022827 48.13360769 -0.07572345 55.65947559 -0.07683842 C61.77817339 -0.07778883 67.89686085 -0.08189879 74.01555538 -0.08823967 C91.3666847 -0.10585461 108.71778928 -0.11507834 126.06892761 -0.11357872 C127.00437696 -0.11349881 127.93982632 -0.1134189 128.90362263 -0.11333656 C130.30851219 -0.11321392 130.30851219 -0.11321392 131.74178336 -0.1130888 C146.91492338 -0.11227619 162.08796405 -0.13140683 177.26107534 -0.1596133 C192.84416001 -0.18835301 208.42719625 -0.20215294 224.01030809 -0.20042574 C232.75759214 -0.19976214 241.50477211 -0.20524128 250.25203228 -0.22678185 C257.70115395 -0.24500813 265.15012435 -0.24932925 272.59925868 -0.235763 C276.39801304 -0.22924014 280.19647734 -0.22909107 283.99520397 -0.2464695 C288.11892283 -0.26514011 292.24197233 -0.25262773 296.36570454 -0.23720741 C297.55881424 -0.24749454 298.75192394 -0.25778167 299.98118848 -0.26838052 C310.16490736 -0.1843073 318.22925233 2.18373568 325.73931599 9.26898766 C333.39668091 17.94960847 334.7943523 27.3883248 334.76788044 38.54169273 C334.77554684 40.2162529 334.77554684 40.2162529 334.78336811 41.92464256 C334.79723525 45.60458341 334.79630929 49.28433633 334.79400349 52.96430016 C334.79789233 55.53108858 334.80222739 58.09787636 334.80698872 60.66466331 C334.81444501 66.0419914 334.81430314 71.4192471 334.80889606 76.79657555 C334.80286253 82.99105741 334.81515646 89.18531178 334.83646613 95.37975484 C334.85628251 101.36251449 334.85924672 107.345156 334.85573101 113.32795334 C334.856243 115.86237369 334.86145773 118.39679778 334.87154293 120.93119812 C334.88393955 124.48252847 334.87709548 128.03333886 334.86553669 131.58466148 C334.87318043 132.62239708 334.88082417 133.66013268 334.88869953 134.7293148 C334.81366409 145.20933608 332.34018843 154.17103281 325.49322224 162.25726891 C316.83501055 170.62322028 307.25523792 171.7040782 295.62676716 171.63821983 C294.35135909 171.64289981 293.07595102 171.64757978 291.76189423 171.65240157 C288.24223125 171.66486794 284.72281386 171.65876128 281.20315027 171.64944291 C277.39940328 171.64263475 273.59569752 171.65314238 269.79195881 171.66138268 C262.34851571 171.6747034 254.90516351 171.67184969 247.46171689 171.66314475 C241.41079956 171.65636207 235.35990766 171.65545401 229.30898762 171.6587162 C228.44689283 171.6591759 227.58479803 171.6596356 226.69657916 171.66010923 C224.94510054 171.66106843 223.19362193 171.66204107 221.44214332 171.663027 C205.0290617 171.67157603 188.6160304 171.66175441 172.20295703 171.6456259 C158.12813743 171.63222316 144.05339206 171.63455139 129.9785738 171.64838219 C113.623126 171.6644466 97.26772227 171.6707521 80.91226768 171.6615454 C79.16733075 171.66058978 77.42239381 171.65964666 75.67745686 171.6587162 C74.3897352 171.65802196 74.3897352 171.65802196 73.07599896 171.6573137 C67.0342663 171.6547264 60.99256165 171.6590892 54.95083332 171.66615486 C47.5852336 171.67457963 40.21972977 171.6722692 32.854141 171.65631263 C29.0980656 171.64844304 25.3421499 171.64531581 21.58607578 171.65526009 C17.51047134 171.66588691 13.43526812 171.65317477 9.35967731 171.63821983 C8.1780561 171.644912 6.99643488 171.65160416 5.77900696 171.65849912 C-5.23170931 171.58013268 -13.59996834 169.19380317 -21.50677776 161.25726891 C-28.53291183 152.03922122 -29.80829624 143.1373591 -29.78143597 131.85931969 C-29.7865469 130.74280022 -29.79165783 129.62628075 -29.79692364 128.47592735 C-29.8107729 124.8014235 -29.80986632 121.12710819 -29.80755901 117.45258141 C-29.81144852 114.88722222 -29.81578372 112.32186368 -29.82054424 109.75650597 C-29.82799646 104.3851542 -29.82786162 99.01387493 -29.82245159 93.64252281 C-29.81641523 87.45540452 -29.8287209 81.26851384 -29.85002166 75.08143437 C-29.86983701 69.10347806 -29.87280251 63.12563998 -29.86928654 57.14764595 C-29.86979847 54.61601668 -29.87501212 52.08438366 -29.88509846 49.55277443 C-29.89749451 46.00634253 -29.89065162 42.46043134 -29.87909222 38.91400719 C-29.88673595 37.87784264 -29.89437969 36.84167809 -29.90225506 35.77411461 C-29.8238669 24.84197663 -27.32410012 16.1196912 -19.50677776 8.25726891 C-13.55056481 3.49433834 -7.77520419 0.01153578 0 0 Z M197.87438679 25.44174767 C194.91122593 29.33678064 194.48744475 34.27510354 193.64165974 38.98773766 C193.27358803 40.86003323 192.90546825 42.73231969 192.53602123 44.60434437 C192.13231677 46.66916061 191.73970114 48.73587411 191.34856892 50.80310631 C190.44992167 55.52298264 189.48955726 60.22942163 188.52154255 64.93549156 C186.9096825 72.78109928 185.31844506 80.63057124 183.74270725 88.48351288 C182.64826554 93.93727372 181.54712192 99.38961844 180.44077206 104.84097576 C179.72081873 108.39602793 179.00684629 111.95226218 178.29450321 115.50884628 C177.9562766 117.19212914 177.61580775 118.87496319 177.27296543 120.55731201 C176.7978593 122.89137369 176.33130671 125.22699475 175.86675739 127.56317711 C175.72657185 128.24208 175.5863863 128.92098289 175.44195271 129.6204586 C174.28372666 135.52665204 173.33722071 140.36563004 176.55572224 145.63226891 C180.05546348 148.75969725 181.83055859 149.34053076 186.49322224 149.25726891 C190.26771099 147.62737603 192.24889785 145.64212134 194.49322224 142.25726891 C195.23983465 140.16170988 195.23983465 140.16170988 195.651227 137.89529991 C195.83204823 137.02918083 196.01286945 136.16306175 196.19917011 135.27069664 C196.38474979 134.32831139 196.57032948 133.38592613 196.76153278 132.41498375 C196.96679585 131.41609123 197.17205891 130.41719872 197.38354206 129.38803673 C198.05957824 126.08347774 198.72018485 122.77605117 199.37994099 119.46820641 C199.84583813 117.16604426 200.31238494 114.86401349 200.77955341 112.56210899 C201.75708201 107.73315996 202.7270541 102.90277055 203.69170856 98.07123375 C204.92541628 91.89498576 206.17710791 85.72255114 207.43447876 79.55108261 C208.40157483 74.79456329 209.35929307 70.03619275 210.31421566 65.27721596 C210.771899 63.0017978 211.23239402 60.72694326 211.69580364 58.4526844 C212.34436949 55.26224196 212.98030726 52.06952532 213.61309528 48.87592125 C213.80474766 47.94568138 213.99640003 47.01544151 214.19386005 46.05701256 C216.46920068 35.29924524 216.46920068 35.29924524 213.61822224 25.19476891 C210.91050993 22.72597239 209.92882829 22.30753114 206.24322224 21.88226891 C202.47082759 22.25950837 200.68678917 22.93257681 197.87438679 25.44174767 Z M6.49322224 35.25726891 C4.20446706 38.47583087 3.49322224 40.37585024 3.49322224 44.31976891 C4.92678726 48.53086616 7.50717508 51.26424533 11.49322224 53.25726891 C14.11949357 53.34394145 16.71884707 53.37287026 19.34478474 53.35492516 C20.50583225 53.35280273 20.50583225 53.35280273 21.69033527 53.35063744 C24.16633665 53.34503294 26.64224812 53.33247974 29.11822224 53.31976891 C30.79530427 53.31475448 32.47238771 53.31019148 34.14947224 53.30609703 C38.26411821 53.29591226 42.37856939 53.27633784 46.49322224 53.25726891 C46.49322224 60.51726891 46.49322224 67.77726891 46.49322224 75.25726891 C43.92540974 75.20506187 43.92540974 75.20506187 41.30572224 75.15180016 C39.03489876 75.12364945 36.76406462 75.09635067 34.49322224 75.06976891 C33.36787067 75.04463219 32.24251911 75.01949547 31.08306599 74.99359703 C23.1710938 74.92419377 17.52492757 75.69163824 10.74322224 80.00726891 C2.90893973 87.84155141 3.26079381 96.49809796 3.18072224 106.94476891 C3.15171833 108.18678062 3.12271442 109.42879234 3.09283161 110.70844078 C3.03695478 118.81917763 3.48322811 125.96991359 9.24395466 132.12909508 C15.20946044 137.6663347 20.65408539 138.56669078 28.55572224 138.55805016 C29.42463093 138.56233528 30.29353962 138.56662041 31.18877888 138.57103539 C33.02104542 138.57676379 34.85333471 138.57728995 36.68560505 138.57294273 C39.48385157 138.5697795 42.28104352 138.59327137 45.07915974 138.61859703 C46.86301257 138.6208699 48.64686824 138.62157358 50.43072224 138.62055016 C51.68091145 138.63436478 51.68091145 138.63436478 52.956357 138.64845848 C57.63345223 138.61131437 60.6796486 138.26664781 64.49322224 135.25726891 C66.82148599 132.04204753 66.89033405 129.14896466 66.49322224 125.25726891 C65.27546703 122.57820745 64.30650927 120.82854743 61.88677692 119.12885094 C58.43422527 117.87164883 55.07031116 118.01173925 51.44634724 118.06195641 C50.67514545 118.0647863 49.90394367 118.0676162 49.10937214 118.07053185 C46.65382892 118.08169878 44.19865464 118.10679662 41.74322224 118.13226891 C40.07525877 118.14230323 38.40728956 118.15142829 36.73931599 118.15961266 C32.65702932 118.17992254 28.57553724 118.21907677 24.49322224 118.25726891 C24.49322224 110.99726891 24.49322224 103.73726891 24.49322224 96.25726891 C34.86822224 96.44476891 34.86822224 96.44476891 38.07281208 96.52753258 C45.80484739 96.5942499 53.64820759 95.79255261 59.93072224 90.88226891 C67.16953966 83.46689496 66.70526706 76.43714999 66.73345661 66.52264977 C66.74314233 64.46177049 66.77418301 62.40189804 66.80572224 60.34125328 C66.8389098 51.89086997 66.2933862 46.71678929 61.80572224 39.56976891 C53.68763246 31.45167913 43.14508661 32.04484384 32.40142536 32.01703453 C30.13217225 32.00732857 27.86382577 31.97626969 25.59478474 31.94476891 C24.13645673 31.93823749 22.67812231 31.93298756 21.21978474 31.92914391 C19.24872761 31.91512535 19.24872761 31.91512535 17.23785114 31.90082359 C12.90288611 32.31346207 10.32844628 33.23684785 6.49322224 35.25726891 Z M239.55572224 37.00726891 C237.97526097 40.35412805 237.9883696 42.59708732 238.49322224 46.25726891 C240.51690119 49.73086343 242.60339047 51.96065832 246.49322224 53.25726891 C248.70281477 53.40835983 250.9162227 53.50600691 253.12994099 53.57367516 C255.07803669 53.63651695 255.07803669 53.63651695 257.06548786 53.70062828 C258.43722984 53.74043878 259.80897468 53.78015106 261.18072224 53.81976891 C262.56419869 53.86297726 263.94766251 53.90659229 265.33111286 53.95062828 C268.71837943 54.05684918 272.10572023 54.15889248 275.49322224 54.25726891 C275.16749226 55.11646935 274.84176228 55.97566978 274.50616169 56.8609066 C271.43203343 64.97680896 268.37063704 73.09737532 265.3232851 81.22337151 C263.75633414 85.40041696 262.18459939 89.57552616 260.60162067 93.74652672 C259.07284662 97.77524642 257.55704782 101.8086326 256.04995441 105.84551048 C255.47403877 107.38132261 254.89354509 108.91542638 254.30831623 110.44771385 C253.48650358 112.60182967 252.68149469 114.76156285 251.87994099 116.92328453 C251.41805378 118.14906212 250.95616657 119.37483971 250.48028278 120.63776207 C249.33293913 124.84501988 249.18274763 127.91503539 249.49322224 132.25726891 C251.28686135 135.06730351 252.51203159 136.76667358 255.49322224 138.25726891 C259.85141099 138.76013684 261.86264478 138.68857045 265.53110981 136.17941856 C268.73769974 133.33901808 270.23140621 130.11537251 271.63702106 126.12787437 C271.89963734 125.42970604 272.16225361 124.7315377 272.43282795 124.01221275 C273.28931783 121.72231668 274.11982315 119.42391681 274.95025349 117.12445641 C275.54305852 115.52394909 276.13745922 113.92403196 276.73338032 112.32468224 C278.29275411 108.12638059 279.83014867 103.92035741 281.36309528 99.71234703 C282.92882271 95.42677142 284.51574634 91.14906439 286.10064411 86.87055016 C288.41022306 80.62699853 290.71146825 74.38049272 292.99639606 68.12787437 C293.23584446 67.47326225 293.47529285 66.81865013 293.72199726 66.14420128 C296.65689603 58.09950852 298.11686042 52.09260151 294.43072224 44.00726891 C291.1293336 38.03509396 287.56285006 35.26974522 281.14165974 33.15180016 C274.99214767 31.70677472 268.71223978 31.92840226 262.43072224 31.94476891 C261.18999958 31.92865562 259.94927692 31.91254234 258.67095661 31.89594078 C248.28452941 31.87674076 248.28452941 31.87674076 239.55572224 37.00726891 Z M90.49322224 37.25726891 C88.6575705 41.7102902 88.23653648 45.51310325 88.22759724 50.30805016 C88.22568378 50.9662928 88.22377033 51.62453545 88.2217989 52.30272484 C88.22044521 53.68853706 88.22408427 55.07436232 88.23248005 56.46014977 C88.24314005 58.55362855 88.23258421 60.64623922 88.21978474 62.73969078 C88.1658206 76.91327125 88.1658206 76.91327125 94.49322224 89.25726891 C102.56539488 96.52222429 110.44333549 96.40720344 120.86822224 96.31976891 C121.8904488 96.31525719 122.91267536 96.31074547 123.96587849 96.30609703 C126.47505418 96.29437191 128.98410713 96.27796067 131.49322224 96.25726891 C131.46965656 97.76293419 131.46965656 97.76293419 131.44561481 99.29901695 C131.3911711 103.03558845 131.35681998 106.77212512 131.32842731 110.50897789 C131.31337348 112.12394679 131.29292576 113.73887504 131.26690388 115.35370445 C131.23036937 117.67973446 131.21346209 120.00522231 131.20025349 122.33148766 C131.18476963 123.04938972 131.16928577 123.76729179 131.15333271 124.50694847 C131.15150247 130.00208774 132.46479239 133.15639514 136.24322224 137.06976891 C139.5271443 138.80294999 141.83442208 138.70659524 145.49322224 138.25726891 C148.72186106 136.39183314 150.14803764 135.06666095 151.61277485 131.63213158 C152.64599498 127.67167226 152.78108025 123.94574308 152.76788044 119.88446617 C152.77554684 118.65643776 152.77554684 118.65643776 152.78336811 117.40360069 C152.79721373 114.71021683 152.79631122 112.01709028 152.79400349 109.32367516 C152.79789302 107.44329802 152.80222822 105.56292175 152.80698872 103.68254662 C152.81443999 99.74608064 152.81416745 95.80970437 152.80889606 91.8732357 C152.8031012 86.83840991 152.82003819 81.80395196 152.84324074 76.76918697 C152.85799932 72.88718597 152.85884691 69.00527314 152.85573101 65.12324905 C152.8562431 63.26737235 152.86145962 61.41149056 152.87154293 59.55564117 C152.88393208 56.95667551 152.87710114 54.35842115 152.86553669 51.75946617 C152.87318043 50.9992466 152.88082417 50.23902702 152.88869953 49.45577049 C152.8319376 43.6604306 151.72726926 38.82228586 147.80572224 34.31976891 C144.36786648 32.74021356 141.15101004 32.46619972 137.49322224 33.25726891 C134.27367579 35.79180547 132.78889789 37.37024195 131.49322224 41.25726891 C131.40840451 43.84357115 131.37723995 46.40204947 131.39556599 48.98773766 C131.39768841 50.11336868 131.39768841 50.11336868 131.39985371 51.26173973 C131.40544664 53.65612351 131.4179978 56.05041344 131.43072224 58.44476891 C131.43573815 60.06911651 131.4403009 61.69346559 131.44439411 63.31781578 C131.45456244 67.29769865 131.47413912 71.27737884 131.49322224 75.25726891 C124.23322224 75.25726891 116.97322224 75.25726891 109.49322224 75.25726891 C109.52802692 72.87250328 109.56283161 70.48773766 109.59869099 68.03070641 C109.6221231 65.70731362 109.64031878 63.38393427 109.65801716 61.06049156 C109.673054 59.45235818 109.69348895 57.84426547 109.7195406 56.23627281 C109.75615046 53.91764827 109.77299945 51.59956841 109.78619099 49.28070641 C109.80167484 48.56796562 109.8171587 47.85522484 109.83311176 47.12088585 C109.83467789 42.41924384 109.01866886 39.22661941 106.49322224 35.25726891 C100.75326567 31.43063119 95.03193554 32.18458933 90.49322224 37.25726891 Z " fill="#000000" transform="translate(103.5067777633667,319.74273109436035)"/>
<path d="M0 0 C4.91893774 4.33353093 9.77369371 8.71274158 14.52734375 13.2265625 C15.06149902 13.73203613 15.5956543 14.23750977 16.14599609 14.75830078 C24.44404761 22.66672611 31.70349525 31.02385171 38.52734375 40.2265625 C38.95112305 40.78956055 39.37490234 41.35255859 39.81152344 41.93261719 C76.83791476 91.25370571 92.43357896 154.73889706 84.01049805 215.75244141 C79.69636581 243.25473531 71.08543743 269.18645325 58.15234375 293.7890625 C57.8186377 294.42674561 57.48493164 295.06442871 57.14111328 295.72143555 C54.77587334 300.10229771 54.77587334 300.10229771 52.52734375 301.2265625 C52.51799805 300.35555908 52.50865234 299.48455566 52.49902344 298.5871582 C52.45445219 295.28954149 52.39260062 291.99311586 52.31982422 288.69604492 C52.29196457 287.28144747 52.27058006 285.86670447 52.25634766 284.4519043 C52.12574346 272.18816998 50.61376618 260.80402548 43.3828125 250.51953125 C40.91519692 243.90542008 44.8006373 234.83348223 46.46484375 228.2890625 C58.27189052 179.83752834 51.42362497 125.22370341 25.68017578 82.10009766 C19.00385771 71.25002039 11.93533098 60.815964 3.52734375 51.2265625 C2.8003125 50.38996094 2.07328125 49.55335937 1.32421875 48.69140625 C-0.90648942 46.16821012 -3.17472285 43.688634 -5.47265625 41.2265625 C-6.230625 40.41445312 -6.98859375 39.60234375 -7.76953125 38.765625 C-42.2441374 3.05173562 -93.39875449 -17.95523466 -142.6723175 -19.07225037 C-166.99508049 -19.49780109 -190.32978824 -16.52524611 -213.47265625 -8.7734375 C-214.54797607 -8.41378906 -214.54797607 -8.41378906 -215.64501953 -8.046875 C-265.69191276 9.04631678 -306.90816536 46.00161673 -330.47265625 93.2265625 C-339.10323294 111.60821753 -344.65593101 130.32348464 -348.47265625 150.2265625 C-348.84777344 152.16015625 -348.84777344 152.16015625 -349.23046875 154.1328125 C-353.4796611 181.18400884 -350.69630014 209.60095852 -343.55859375 235.84375 C-341.64371639 243.33268364 -340.75619227 248.12137553 -344.78515625 255.2265625 C-350.53741883 265.49429287 -350.84841677 274.78491274 -351.09765625 286.2265625 C-351.13590591 287.68361532 -351.17496152 289.14064721 -351.21484375 290.59765625 C-351.31008131 294.14043176 -351.39438522 297.6833668 -351.47265625 301.2265625 C-354.55202341 298.40233468 -356.4288813 295.79040747 -358.2421875 292.03515625 C-358.73509277 291.01800537 -359.22799805 290.00085449 -359.73583984 288.95288086 C-360.24711426 287.8675708 -360.75838867 286.78226074 -361.28515625 285.6640625 C-361.81705566 284.53943604 -362.34895508 283.41480957 -362.89697266 282.25610352 C-373.6090487 259.29676051 -380.36183974 235.39278264 -383.47265625 210.2265625 C-383.56691895 209.51483887 -383.66118164 208.80311523 -383.75830078 208.06982422 C-390.73925068 148.93780678 -373.59071273 87.37864845 -337.47265625 40.2265625 C-336.85003906 39.41058594 -336.22742188 38.59460938 -335.5859375 37.75390625 C-330.24100949 30.91283206 -324.44741951 24.51537886 -318.47265625 18.2265625 C-317.96573242 17.69095703 -317.45880859 17.15535156 -316.93652344 16.60351562 C-309.02963777 8.30695811 -300.67364137 1.04913141 -291.47265625 -5.7734375 C-290.9096582 -6.1972168 -290.34666016 -6.62099609 -289.76660156 -7.05761719 C-256.89951489 -31.73163898 -218.15062443 -46.59575294 -177.47265625 -51.7734375 C-176.75513184 -51.86915039 -176.03760742 -51.96486328 -175.29833984 -52.06347656 C-113.59269428 -59.34137769 -47.48595921 -40.24233832 0 0 Z " fill="#000000" transform="translate(405.47265625,73.7734375)"/>
</svg>
